Coordinates
version=1
nRows=10
nColumns=63
inDegrees=yes

Units are S.I. units (second, meters, Newtons, ...)
If the header above contains a line with 'inDegrees', this indicates whether rotational values are in degrees (yes) or radians (no).

endheader
time	pelvis_tilt	pelvis_list	pelvis_rotation	pelvis_tx	pelvis_ty	pelvis_tz	hip_flexion_r	hip_adduction_r	hip_rotation_r	knee_angle_r	knee_angle_r_beta	ankle_angle_r	subtalar_angle_r	mtp_angle_r	hip_flexion_l	hip_adduction_l	hip_rotation_l	knee_angle_l	knee_angle_l_beta	ankle_angle_l	subtalar_angle_l	mtp_angle_l	L5_S1_Flex_Ext	L5_S1_Lat_Bending	L5_S1_axial_rotation	L4_L5_Flex_Ext	L4_L5_Lat_Bending	L4_L5_axial_rotation	L3_L4_Flex_Ext	L3_L4_Lat_Bending	L3_L4_axial_rotation	L2_L3_Flex_Ext	L2_L3_Lat_Bending	L2_L3_axial_rotation	L1_L2_Flex_Ext	L1_L2_Lat_Bending	L1_L2_axial_rotation	L1_T12_Flex_Ext	L1_T12_Lat_Bending	L1_T12_axial_rotation	Abs_r3	Abs_r2	Abs_r1	Abs_t1	Abs_t2	neck_flexion	neck_bending	neck_rotation	arm_flex_r	arm_add_r	arm_rot_r	elbow_flex_r	pro_sup_r	wrist_flex_r	wrist_dev_r	arm_flex_l	arm_add_l	arm_rot_l	elbow_flex_l	pro_sup_l	wrist_flex_l	wrist_dev_l
      3.93300000	    -43.01047585	     -3.95928738	     -2.74482497	     -0.38144418	      1.12294709	      0.01213263	    100.78018849	     -5.72964620	     -4.64844984	     99.62907100	      1.73885532	      0.46043580	     -5.81492617	      0.00000000	     89.07036257	     -5.24271125	      7.91256254	     50.64996082	      0.88400858	      5.97276001	     -8.98041721	      0.00000000	     -0.07430102	      0.69215605	      0.43660496	     -0.13798442	      0.92056755	      0.46389277	     -0.12206914	      1.68290822	      0.46389277	     -0.08491863	      1.68290822	      0.38202934	     -0.06899593	      1.41144462	      0.35474153	     -0.04245560	      1.07214972	      0.32745372	     -0.53072475	      7.82980768	      2.42826579	      0.00000000	      0.00000000	     -0.00000000	      0.00000000	      0.00000000	     63.48245411	    -11.43981421	     22.46665621	     35.87417249	     61.43835615	      0.00000000	      5.00006742	     64.41333672	     -5.46137754	     21.77740872	     30.57109371	     60.89028054	      0.00000000	      5.00006742
      3.94200000	    -42.97759397	     -4.07713635	     -2.82163154	     -0.38101187	      1.12286437	      0.01186318	    102.17444653	     -5.86716415	     -4.65242619	    101.06718730	      1.76395518	      0.96239290	     -5.84888629	      0.00000000	     87.56010033	     -5.53966674	      7.80906577	     48.94186451	      0.85419668	      5.24208041	     -8.75578823	      0.00000000	     -0.07593590	      0.72711628	      0.44918934	     -0.14102056	      0.96706465	      0.47726368	     -0.12475509	      1.76791052	      0.47726368	     -0.08678714	      1.76791052	      0.39304068	     -0.07051408	      1.48273551	      0.36496634	     -0.04338977	      1.12630312	      0.33689201	     -0.54240254	      8.22528476	      2.49825637	      0.00000000	      0.00000000	     -0.00000000	      0.00000000	      0.00000000	     63.62840305	    -11.48040564	     22.78135646	     35.78940318	     61.42994954	      0.00000000	      5.00006634	     64.32442001	     -5.47338921	     21.72882391	     30.47141286	     60.82884353	      0.00000000	      5.00006634
      3.95000000	    -42.91871473	     -4.02141933	     -2.69052839	     -0.38058567	      1.12272967	      0.01142976	    103.61478683	     -6.16951312	     -4.39872518	    102.51103486	      1.78915508	      1.68863166	     -5.77686603	      0.00000000	     86.10686982	     -5.61062034	      7.44810140	     47.39965597	      0.82728006	      4.34506296	     -8.89230057	      0.00000000	     -0.07528077	      0.73696815	      0.41971224	     -0.13980392	      0.98016764	      0.44594426	     -0.12367878	      1.79186437	      0.44594426	     -0.08603840	      1.79186437	      0.36724821	     -0.06990573	      1.50282546	      0.34101620	     -0.04301543	      1.14156367	      0.31478418	     -0.53772304	      8.33673114	      2.33431359	      0.00000000	      0.00000000	     -0.00000000	      0.00000000	      0.00000000	     63.79509177	    -11.56719247	     23.63703851	     35.63117872	     61.54863295	      0.00000000	      5.00006465	     64.23719664	     -5.52998193	     21.60591248	     30.34056242	     60.79757008	      0.00000000	      5.00006465
      3.95800000	    -42.91452966	     -4.27573367	     -2.96202705	     -0.38019033	      1.12287046	      0.01146732	    104.94334227	     -6.12124740	     -4.57664766	    103.63015641	      1.80868743	      2.18948130	     -5.74043180	      0.00000000	     84.82372705	     -6.11968203	      7.49110547	     46.03121968	      0.80339634	      3.75674084	     -8.69095631	      0.00000000	     -0.07409734	      0.78675040	      0.47236081	     -0.13760616	      1.04637803	      0.50188336	     -0.12173451	      1.91290492	      0.50188336	     -0.08468584	      1.91290492	      0.41331571	     -0.06880679	      1.60434142	      0.38379316	     -0.04233922	      1.21867637	      0.35427060	     -0.52926986	      8.89987788	      2.62712910	      0.00000000	      0.00000000	     -0.00000000	      0.00000000	      0.00000000	     63.86348712	    -11.69352377	     23.86630378	     35.61780075	     61.56130782	      0.00000000	      5.00006402	     64.05959708	     -5.51403626	     21.58694922	     30.35018323	     60.77163987	      0.00000000	      5.00006402
      3.96700000	    -42.89309791	     -4.36152646	     -3.01410856	     -0.37992598	      1.12305785	      0.01127028	    106.26502495	     -6.24802727	     -4.44732245	    104.70440740	      1.82743665	      3.45084519	     -4.74472836	      0.00000000	     83.56865210	     -6.37677007	      7.24573858	     44.71251825	      0.78038066	      3.01366428	     -8.93563019	      0.00000000	     -0.07579796	      0.81246647	      0.47601759	     -0.14076439	      1.08058041	      0.50576869	     -0.12452847	      1.97543098	      0.50576869	     -0.08662949	      1.97543098	      0.41651539	     -0.07038599	      1.65678163	      0.38676429	     -0.04331095	      1.25851056	      0.35701319	     -0.54141724	      9.19078322	      2.64746701	      0.00000000	      0.00000000	     -0.00000000	      0.00000000	      0.00000000	     64.16670671	    -12.06283081	     25.70299027	     35.59547680	     61.88135352	      0.00000000	      5.00005985	     63.86781243	     -5.50734442	     21.09649739	     30.39569943	     60.72800114	      0.00000000	      5.00005985
      3.97500000	    -42.90588257	     -4.58071379	     -3.21239865	     -0.37966915	      1.12336672	      0.01139567	    107.53724282	     -6.22981164	     -4.61056330	    105.54413819	      1.84209272	      3.99133068	     -4.84168010	      0.00000000	     82.46745434	     -6.80652699	      7.23733113	     43.61199253	      0.76117286	      2.66337443	     -8.73353590	      0.00000000	     -0.07466783	      0.85153133	      0.51435277	     -0.13866562	      1.13253667	      0.54649981	     -0.12267177	      2.07041327	      0.54649981	     -0.08533786	      2.07041327	      0.45005867	     -0.06933654	      1.73644268	      0.41791162	     -0.04266520	      1.31902203	      0.38576457	     -0.53334481	      9.63269268	      2.86067578	      0.00000000	      0.00000000	     -0.00000000	      0.00000000	      0.00000000	     64.15228958	    -12.18195942	     25.82196942	     35.70110467	     61.90373558	      0.00000000	      5.00005946	     63.71678142	     -5.50128590	     21.04927723	     30.40900875	     60.72500004	      0.00000000	      5.00005946
      3.98300000	    -42.91641380	     -4.59498342	     -3.32223671	     -0.37948055	      1.12370654	      0.01157691	    108.78206480	     -6.22679896	     -4.46471254	    106.26826510	      1.85473112	      5.18046930	     -4.15116843	      0.00000000	     81.41933524	     -7.16662891	      6.80836126	     42.63370369	      0.74409850	      2.52422698	     -8.25970185	      0.00000000	     -0.07574363	      0.85970158	      0.53401898	     -0.14066349	      1.14340311	      0.56739517	     -0.12443920	      2.09027843	      0.56739517	     -0.08656739	      2.09027843	      0.46726661	     -0.07033553	      1.75310347	      0.43389042	     -0.04327991	      1.33167775	      0.40051424	     -0.54102914	      9.72511626	      2.97005337	      0.00000000	      0.00000000	     -0.00000000	      0.00000000	      0.00000000	     64.18792517	    -12.47030381	     26.78736818	     35.99712499	     62.08491617	      0.00000000	      5.00005648	     63.53389647	     -5.45805984	     20.43146163	     30.51755643	     60.66182119	      0.00000000	      5.00005648
      3.99200000	    -42.95254245	     -4.76080531	     -3.48221721	     -0.37934285	      1.12413580	      0.01180336	    109.94191072	     -6.20768280	     -4.60957198	    106.75589453	      1.86324186	      5.80215229	     -4.27684741	      0.00000000	     80.54217761	     -7.51401854	      6.79298817	     41.92227282	      0.73168169	      2.28495072	     -8.09967169	      0.00000000	     -0.07591180	      0.88639201	      0.56474537	     -0.14097580	      1.17890137	      0.60004195	     -0.12471549	      2.15517353	      0.60004195	     -0.08675959	      2.15517353	      0.49415220	     -0.07049169	      1.80753059	      0.45885561	     -0.04337600	      1.37302122	      0.42355903	     -0.54223037	     10.02704369	      3.14094432	      0.00000000	      0.00000000	     -0.00000000	      0.00000000	      0.00000000	     64.13579605	    -12.60027130	     26.90779460	     36.21894537	     62.10405171	      0.00000000	      5.00005607	     63.41878087	     -5.46536921	     20.35710535	     30.55339327	     60.65446365	      0.00000000	      5.00005607
      4.00000000	    -43.00036152	     -4.79847459	     -3.63158365	     -0.37923710	      1.12465022	      0.01207166	    111.02171138	     -6.14802616	     -4.64430400	    107.02265137	      1.86789764	      6.66649979	     -4.38948963	      0.00000000	     79.75102106	     -7.81033153	      6.64325846	     41.40470705	      0.72264846	      2.05763661	     -7.88229507	      0.00000000	     -0.07664903	      0.89488255	      0.59887249	     -0.14234491	      1.19019379	      0.63630202	     -0.12592669	      2.17581742	      0.63630202	     -0.08760217	      2.17581742	      0.52401342	     -0.07117629	      1.82484449	      0.48658389	     -0.04379725	      1.38617306	      0.44915436	     -0.54749635	     10.12309034	      3.33074910	      0.00000000	      0.00000000	     -0.00000000	      0.00000000	      0.00000000	     64.03656402	    -12.80299793	     27.13169250	     36.63701273	     62.13574563	      0.00000000	      5.00005555	     63.32492776	     -5.45968337	     20.20344765	     30.61333892	     60.63415093	      0.00000000	      5.00005555
      4.00800000	    -43.05876591	     -4.74484503	     -3.79722863	     -0.37915909	      1.12513320	      0.01242529	    112.03414699	     -6.02363256	     -4.60639196	    107.09822701	      1.86921668	      7.68574190	     -4.44405151	      0.00000000	     79.12245689	     -8.08303890	      6.41310188	     41.25601363	      0.72005327	      1.85188954	     -7.64729982	      0.00000000	     -0.07683673	      0.88936446	      0.64022106	     -0.14269349	      1.18285473	      0.68023488	     -0.12623507	      2.16240074	      0.68023488	     -0.08781670	      2.16240074	      0.56019343	     -0.07135059	      1.81359200	      0.52017961	     -0.04390451	      1.37762554	      0.48016579	     -0.54883709	     10.06066859	      3.56071746	      0.00000000	      0.00000000	     -0.00000000	      0.00000000	      0.00000000	     63.90014019	    -13.05716251	     27.40101155	     37.15948348	     62.17256463	      0.00000000	      5.00005489	     63.25638639	     -5.42306785	     19.96832516	     30.64438574	     60.60218560	      0.00000000	      5.00005489
